<?xml version="1.0" ?><!DOCTYPE svg  PUBLIC '-//W3C//DTD SVG 1.1//EN'  'http://www.w3.org/Graphics/SVG/1.1/DTD/svg11.dtd'><svg height="512px" style="enable-background:new 0 0 512 512;" version="1.1" viewBox="0 0 512 512" width="512px" xml:space="preserve" xmlns="http://www.w3.org/2000/svg" xmlns:xlink="http://www.w3.org/1999/xlink"><g id="comp_x5F_303-sketch"><g><path d="M43.216,168.709l-17.215,23.172h84.22l6.421-121.63L43.216,168.709z M386.424,60.295L266.748,47.544L393.03,184.529    L386.424,60.295L386.424,60.295z M122.039,220.916l-10.423-20.474H26.839l209.293,243.54L122.039,220.916z M123.9,191.881h264.292    l-75.844-82.358L256.14,48.476L123.9,191.881z M400.568,200.35L275.961,443.982l209.2-243.54h-84.593V200.35z M404.198,81.977    l-8.748-11.726l0.837,16.1l5.677,105.53h84.035L404.198,81.977z M123.249,104.777l-4.28,79.659L245.345,47.544L125.668,60.295    L123.249,104.777z M390.984,200.35H121.109l39.457,77.146l95.573,186.96L390.984,200.35z"/></g></g><g id="Layer_1"/></svg>